<svg width="24" height="13" viewBox="0 0 24 13" fill="none" xmlns="http://www.w3.org/2000/svg">
<path d="M3.30462 12.8608H20.6954C22.5184 12.8608 24 12.0963 24 11.1555V2.65788C24 1.71714 22.5184 0.952634 20.6954 0.952634H19.3846V0.476317C19.3846 0.214335 18.9692 0 18.4615 0C17.9538 0 17.5384 0.214335 17.5384 0.476317V0.952634H6.46157V0.476317C6.46157 0.214335 6.04613 0 5.53843 0C5.03073 0 4.61537 0.214335 4.61537 0.476317V0.952634H3.30462C1.48155 0.952634 0 1.71714 0 2.65788V11.1555C0 12.0963 1.48155 12.8608 3.30462 12.8608ZM1.8462 2.65788C1.8462 2.24349 2.50157 1.90531 3.30462 1.90531H4.61537V2.38162C4.61537 2.64361 5.03073 2.85794 5.53843 2.85794C6.04613 2.85794 6.46149 2.64361 6.46149 2.38162V1.90531H17.5384V2.38162C17.5384 2.64361 17.9538 2.85794 18.4615 2.85794C18.9692 2.85794 19.3846 2.64361 19.3846 2.38162V1.90531H20.6953C21.4984 1.90531 22.1537 2.24349 22.1537 2.65788V4.04877H1.8462V2.65788ZM1.8462 5.00141H22.1539V11.1555C22.1539 11.5699 21.4985 11.9081 20.6955 11.9081H3.30462C2.50157 11.9081 1.8462 11.5699 1.8462 11.1555V5.00141Z" fill="#868686"/>
</svg>
